<?xml version="1.0" encoding="utf-8"?>
<!-- Generator: Adobe Illustrator 23.0.4, SVG Export Plug-In . SVG Version: 6.00 Build 0)  -->
<svg version="1.1" id="Layer_1" xmlns="http://www.w3.org/2000/svg" xmlns:xlink="http://www.w3.org/1999/xlink" x="0px" y="0px"
	 viewBox="0 0 251.4 331.8" style="enable-background:new 0 0 251.4 331.8;" xml:space="preserve">
<style type="text/css">
	.st0{fill:#FFFFFF;}
</style>
<g>
	<path class="st0" d="M125.2,281.3c-4.5,0-7.2-3-7.2-5.8c0-0.8,0.2-1.4,0.6-2c0.4,1.4,0.8,4.3,4.1,4.7c6.6,0.9,11.9-8.6,15.8-26l1-4
		c0.7-2.8,1.5-6.2,2-7.9c-0.9,0-6.4,0-10.9,0c2,2.2,3,5.3,3,8.5c0,8.1-6.4,17.2-15,17.2c-7.1,0-9-6.7-9-10.6c0-9,7.1-17.8,14.3-17.9
		l0,0c0,0,17.4,0,18.3,0c0.3-0.9,0.8-2.8,0.8-2.8c2.4-8.5,7.1-14.1,13.5-14.1c4.9,0,7.4,4.1,7.4,6.2c0,0.8-0.4,1.9-1.1,2.6
		c0-0.5,0.3-3.8-3.2-5c-8.8-3-11.8,13.2-11.8,13.2l0,0h9.5c4.2,0,6-1.3,6-1.3s-0.9,4.2-7.8,4.2h-8.4c-0.3,0.9-2.1,7.6-2.1,7.6
		c-1.8,6.6-3.9,14-5.6,19.1C138.6,270.3,134.5,281.3,125.2,281.3L125.2,281.3z M57.9,305.6h-9V198.9h8.7c8.3,0,44,2,44,52.3
		S76.3,305.6,57.9,305.6L57.9,305.6z M125.4,331.8h126l-11.5-36.1c-1.6,4.5-7.7,8.4-17.8,8.4h-46.5v-44.6c0,0,24.1,0,34.3,0
		c15.7,0,21.1-23.3,21.1-23.3c-2,2-4.7,3.3-17.7,3.3h-37.7v-39.3l42.5,0.1c0.1,0.1,7.9,0,8.5,0c10.2,0,16,6.2,16,10.7l6.9-37.3
		H126.3c2.8,2.4,11,8.1,11,18.1c0,0,0,9.5,0,27.4c-0.5-1.5-1.1-2.9-1.7-4.3c-10.7-25.4-30.9-41.3-68.4-41.3
		c-4.1,0-67.2,0.2-67.2,0.2c3.1,2.6,11.9,9.3,11.9,19.5v121.5c-1.6,8.7-8.8,14.6-11.6,17c0,0,61.8-0.1,66.6-0.3
		c4.8-0.2,9.1-0.8,13-0.8c36.1,0,54.1-33.9,57.5-43.3v24.8C137.2,322.6,128.5,329.2,125.4,331.8L125.4,331.8z M124.7,240.3
		c-4.3,0-9.1,10.8-9.1,18.1c0,2.2,1,4.6,2.9,4.6c4.2,0,9.4-10,9.4-17.8C128,243,127.4,240.3,124.7,240.3L124.7,240.3z M155.3,26.4
		c-0.2,0.4-1-0.3-1-0.3l-2.3-2.4c-0.6-0.4-0.4-0.8,0.2-1.1c0.3-0.1,0.9-0.4,1.5-0.6l0,0c0.9-0.4,1.5-0.5,1.5-0.5
		c0.4-0.1,0.7-0.3,1,0.1C156.6,22.8,156.3,25.2,155.3,26.4L155.3,26.4z M149.3,30c-5-1.5-15.6-2.8-23.7-2.7
		c-8.1,0-18.7,1.3-23.7,2.7c-2,0.6-1.9-0.9-1-1.6c1.7-1.2,5.3-2.1,9.4-2.7c4.8-0.7,11-1.2,15.3-1.2l0,0l0,0c4.3,0,10.4,0.5,15.3,1.2
		c4.1,0.7,7.7,1.6,9.4,2.7C151.3,29.1,151.3,30.6,149.3,30L149.3,30z M147.9,35.3c-1.2,0.4-2.3-0.7-2-1.9c0.2-0.9-1-1.3-2.5-1.6
		c-5.7-0.8-15.6-1-17.7-1s-12,0.2-17.7,1c-1.6,0.2-2.8,0.7-2.5,1.6c0.3,1.3-0.8,2.3-2,1.9c-3.9-0.8-3-3-1.3-3.9
		c3.5-1.6,8.8-2.4,23.6-2.7c14.8,0.4,20.1,1.2,23.6,2.7C150.9,32.2,151.9,34.4,147.9,35.3L147.9,35.3z M99.3,23.7L97,26.1
		c0,0-0.7,0.7-1,0.3c-1-1.2-1.3-3.6-0.9-4.8c0.2-0.4,0.6-0.2,1-0.1c0,0,0.6,0.2,1.5,0.5l0,0c0.6,0.2,1.2,0.4,1.5,0.6
		C99.7,22.9,99.9,23.3,99.3,23.7L99.3,23.7z M110.2,18.7c2-0.5,3.9,0.1,4.2,1.3c0.3,1.2-1.1,2.6-3.1,3.2c-0.3,0.1-0.9,0.1-1.2,0.2
		c-1.5,0.1-2.8-0.5-3-1.5C106.8,20.6,108.2,19.2,110.2,18.7L110.2,18.7z M122.2,19.3c0,0,2.9-1.6,3.1-1.7l0,0h0.4l0,0
		c0,0,0.2-0.1,0.4,0c0.2,0.1,3.1,1.7,3.1,1.7c0.4,0.2,0.4,0.7,0,0.9c-0.3,0.2-3.3,2.3-3.3,2.3h-0.2h-0.2c0,0-3-2-3.3-2.3
		C121.8,20,121.8,19.5,122.2,19.3L122.2,19.3z M136.8,20c0.3-1.2,2.2-1.8,4.2-1.3s3.4,1.9,3.1,3.2c-0.2,1-1.5,1.6-3,1.5
		c-0.3,0-0.9-0.1-1.2-0.2C137.9,22.6,136.5,21.2,136.8,20L136.8,20z M163.4,10.9l-6.1-3v6.5l-3.9-3l-2.4,5.8c0,0,4-0.3,5.2,0.5
		c-0.9,0.9-1.9,1.6-3.2,2l0,0c-4.7,1.4-10.4-1.8-9.7-3.8c1.2-3.7,4.8-1.8,4,0.6c5.2-1.8,2.7-7.9-2.4-5.8c1.9-2.5,1.9-5.9-0.3-7.9
		c-3.3,0.6-3.9,3.9-3,7.3c-7-3.7-7.6,3.9-5.1,4.5c1.3-2.4,4.2-1,3.4,0.9c-1.5,3.9-12,2.7-12-2.2c0-2.4,3-1.6,5.6-0.6V4.2l-5.3,1.9
		l2.2-6.1h-9.8l2.2,6.1l-5.4-1.9v8.5c2.7-1,5.6-1.8,5.6,0.6c0,4.9-10.6,6.1-12,2.2c-0.7-1.9,2.1-3.3,3.4-0.9c2.5-0.6,1.9-8.2-5-4.5
		c0.9-3.4,0.3-6.7-3-7.3c-2.2,1.9-2.2,5.4-0.3,7.9c-5.1-2.1-7.6,4-2.4,5.8c-0.7-2.4,2.8-4.3,4-0.6c0.7,2-5,5.2-9.7,3.8l0,0
		c-1.3-0.5-2.4-1.1-3.2-2c1.2-0.7,5.2-0.5,5.2-0.5l-2.4-5.8l-3.9,3V7.9l-6.1,3L93.1,21c-0.3,1.9-0.1,4,1.5,6.3
		c1.6,2.2,0.9,4.6,0.9,4.6c-0.4,1.3,1.6,2.8,3.6,3.6c7.9,2.9,25.8,3,26.3,3l0,0c0.5,0,18.4,0,26.3-3c1.9-0.7,4-2.2,3.6-3.6
		c0,0-0.7-2.4,0.9-4.6s1.8-4.3,1.5-6.3L163.4,10.9L163.4,10.9z M177.2,93.6c-5.2,6.8-17.1,10.7-30.2,3.9
		c6.9-18.3,13.4-31.1,20.4-39.3C182.5,69.7,183,86.1,177.2,93.6L177.2,93.6z M136.1,98.3c-3.2,7.8-6.6,15.3-10.4,22.1
		c-3.8-6.8-7.3-14.3-10.5-22.1c0-0.1-0.1-0.2-0.1-0.3c4.4-3.8,8.1-8.2,10.6-12.7c2.5,4.5,6.2,8.9,10.6,12.7
		C136.2,98.1,136.1,98.2,136.1,98.3L136.1,98.3z M74.1,93.6c-5.8-7.5-5.4-23.9,9.8-35.4c7,8.2,13.5,20.9,20.4,39.3
		C91.2,104.3,79.4,100.4,74.1,93.6L74.1,93.6z M192.3,46.4c-10.5-3.3-19.1-1.3-26.6,4.4c-7.1-3.3-15.1-4.6-23.4-2.9
		c7.7,1.5,14.1,3.7,19.2,6.5c-8.5,8.5-15.6,21.9-22.6,37.5c-4.5-3.8-8.9-9-13.2-15.9c-4.3,6.9-8.8,12.1-13.3,15.9
		c-7-15.6-14.1-29-22.6-37.5c5.1-2.8,11.5-5,19.2-6.5c-8.3-1.8-16.3-0.4-23.4,2.9c-7.5-5.7-16.1-7.6-26.7-4.4
		c7.9-0.3,14.6,2,20.9,7.6C64.2,64.6,56,85,66.6,99.7c10,13.7,26.4,12.2,39.9,4.3c0.1,0.1,0.1,0.3,0.2,0.4c3.5,9.4,8,17.9,13.1,25.4
		c-12.5,18.4-28.1,29-48.2,22.2c14.6,14.4,36.6,6.1,54-14.6c17.3,20.7,39.3,29,53.9,14.6c-20,6.7-35.7-3.9-48.2-22.3
		c5.1-7.4,9.6-16,13.1-25.4c0.1-0.1,0.1-0.3,0.2-0.4c13.5,7.9,30,9.5,40-4.3c10.6-14.7,2.4-35.1-13.2-45.7
		C177.7,48.5,184.4,46.1,192.3,46.4L192.3,46.4z"/>
</g>
</svg>
