<?xml version="1.0" encoding="utf-8"?>
<svg viewBox="29.3 100.528 381.304 40.278" xmlns="http://www.w3.org/2000/svg">
  <g enable-background="new    " transform="matrix(1, 0, 0, 1, 25.547804, 97.698807)">
    <path d="M109.437,12.582l-2.241,2.123c-1.612-1.586-3.379-2.788-5.299-3.607s-3.792-1.229-5.613-1.229    c-2.268,0-4.427,0.558-6.479,1.672s-3.641,2.624-4.768,4.531c-1.127,1.907-1.691,3.923-1.691,6.046    c0,2.176,0.583,4.243,1.75,6.203c1.166,1.959,2.778,3.499,4.836,4.62c2.058,1.121,4.312,1.681,6.763,1.681    c2.975,0,5.492-0.838,7.55-2.517c2.058-1.678,3.277-3.854,3.657-6.527h-9.221v-2.792h12.465c-0.026,4.47-1.354,8.019-3.981,10.646    s-6.144,3.942-10.548,3.942c-5.348,0-9.582-1.822-12.701-5.466c-2.399-2.805-3.598-6.049-3.598-9.732    c0-2.739,0.688-5.288,2.064-7.647c1.376-2.359,3.264-4.204,5.662-5.535c2.399-1.33,5.112-1.995,8.14-1.995    c2.451,0,4.758,0.442,6.921,1.327C105.269,9.21,107.379,10.629,109.437,12.582z" style="fill: rgb(239, 239, 239);"/>
    <path d="M116.672,7.725h16.574v2.831h-13.684v9.063h13.566v2.831h-13.566v11.364h13.566v2.831h-16.456V7.725z" style="fill: rgb(239, 239, 239);"/>
    <path d="M138.26,36.646V7.725h0.629l19.248,22.169V7.725h2.851v28.921h-0.649l-19.091-21.899v21.899H138.26z" style="fill: rgb(239, 239, 239);"/>
    <path d="M167.613,7.725h2.89v28.921h-2.89V7.725z" style="fill: rgb(239, 239, 239);"/>
    <path d="M174.14,31.26l2.458-1.475c1.73,3.185,3.729,4.777,5.997,4.777c0.97,0,1.881-0.227,2.733-0.679    s1.501-1.058,1.946-1.818c0.446-0.76,0.668-1.566,0.668-2.418c0-0.97-0.328-1.92-0.983-2.851    c-0.904-1.285-2.556-2.832-4.955-4.641c-2.412-1.821-3.912-3.139-4.502-3.951c-1.022-1.363-1.534-2.838-1.534-4.424    c0-1.259,0.301-2.405,0.904-3.441c0.603-1.035,1.452-1.851,2.546-2.447s2.284-0.895,3.569-0.895c1.363,0,2.637,0.338,3.824,1.013    c1.186,0.675,2.441,1.917,3.765,3.726l-2.359,1.789c-1.088-1.441-2.015-2.392-2.782-2.851c-0.767-0.459-1.603-0.688-2.507-0.688    c-1.167,0-2.121,0.354-2.861,1.062c-0.741,0.708-1.111,1.58-1.111,2.615c0,0.629,0.131,1.238,0.393,1.828s0.741,1.232,1.436,1.927    c0.38,0.367,1.625,1.331,3.735,2.891c2.503,1.848,4.221,3.493,5.151,4.935c0.931,1.442,1.396,2.891,1.396,4.345    c0,2.098-0.796,3.92-2.389,5.466c-1.592,1.547-3.529,2.32-5.81,2.32c-1.756,0-3.349-0.469-4.777-1.406    C176.663,35.031,175.346,33.462,174.14,31.26z" style="fill: rgb(239, 239, 239);"/>
    <path d="M194.903,7.725h3.325l7.4,11.928l7.283-11.928h3.343l-9.162,15.1v13.821h-2.851V22.825L194.903,7.725z" style="fill: rgb(239, 239, 239);"/>
    <path d="M218.023,31.26l2.458-1.475c1.73,3.185,3.729,4.777,5.996,4.777c0.971,0,1.881-0.227,2.732-0.679    c0.853-0.452,1.502-1.058,1.947-1.818c0.445-0.76,0.668-1.566,0.668-2.418c0-0.97-0.328-1.92-0.982-2.851    c-0.904-1.285-2.557-2.832-4.955-4.641c-2.412-1.821-3.912-3.139-4.502-3.951c-1.022-1.363-1.533-2.838-1.533-4.424    c0-1.259,0.301-2.405,0.904-3.441c0.602-1.035,1.451-1.851,2.545-2.447c1.095-0.597,2.285-0.895,3.569-0.895    c1.362,0,2.638,0.338,3.823,1.013c1.187,0.675,2.441,1.917,3.766,3.726l-2.359,1.789c-1.088-1.441-2.016-2.392-2.781-2.851    c-0.768-0.459-1.604-0.688-2.508-0.688c-1.166,0-2.12,0.354-2.86,1.062c-0.741,0.708-1.11,1.58-1.11,2.615    c0,0.629,0.131,1.238,0.393,1.828s0.74,1.232,1.436,1.927c0.38,0.367,1.625,1.331,3.735,2.891    c2.503,1.848,4.221,3.493,5.151,4.935c0.931,1.442,1.396,2.891,1.396,4.345c0,2.098-0.797,3.92-2.39,5.466    c-1.593,1.547-3.528,2.32-5.81,2.32c-1.756,0-3.35-0.469-4.777-1.406C220.546,35.031,219.229,33.462,218.023,31.26z" style="fill: rgb(239, 239, 239);"/>
  </g>
  <g enable-background="new" transform="matrix(1, 0, 0, 1, 25.547804, 97.698807)">
    <path d="M276.891,12.582l-2.241,2.123c-1.612-1.586-3.379-2.788-5.299-3.607s-3.792-1.229-5.612-1.229    c-2.269,0-4.428,0.558-6.479,1.672c-2.052,1.114-3.641,2.624-4.768,4.531c-1.128,1.907-1.691,3.923-1.691,6.046    c0,2.176,0.583,4.243,1.75,6.203c1.166,1.959,2.778,3.499,4.836,4.62c2.059,1.121,4.313,1.681,6.764,1.681    c2.975,0,5.492-0.838,7.55-2.517c2.058-1.678,3.276-3.854,3.657-6.527h-9.221v-2.792h12.465c-0.027,4.47-1.354,8.019-3.982,10.646    c-2.627,2.628-6.143,3.942-10.547,3.942c-5.348,0-9.582-1.822-12.701-5.466c-2.398-2.805-3.598-6.049-3.598-9.732    c0-2.739,0.688-5.288,2.064-7.647c1.375-2.359,3.264-4.204,5.662-5.535c2.398-1.33,5.111-1.995,8.139-1.995    c2.451,0,4.758,0.442,6.922,1.327C272.723,9.21,274.833,10.629,276.891,12.582z" style="fill: rgb(239, 239, 239);"/>
  </g>
  <g enable-background="new    " transform="matrix(1, 0, 0, 1, 25.547804, 97.698807)">
    <path d="M284.264,7.725h5.76c3.211,0,5.387,0.131,6.527,0.394c1.717,0.394,3.113,1.237,4.188,2.529    c1.075,1.293,1.613,2.884,1.613,4.774c0,1.575-0.371,2.959-1.111,4.153s-1.799,2.097-3.176,2.707    c-1.376,0.61-3.276,0.922-5.701,0.935l10.4,13.429h-3.575l-10.401-13.429h-1.634v13.429h-2.89V7.725z M287.154,10.556v9.83    l4.981,0.04c1.93,0,3.357-0.184,4.283-0.551c0.926-0.366,1.648-0.953,2.166-1.76c0.52-0.806,0.778-1.707,0.778-2.703    c0-0.97-0.263-1.852-0.788-2.645s-1.214-1.359-2.066-1.701c-0.854-0.341-2.271-0.511-4.254-0.511H287.154z" style="fill: rgb(239, 239, 239);"/>
    <path d="M321.35,6.998c4.381,0,8.047,1.462,10.998,4.384c2.951,2.924,4.427,6.521,4.427,10.794    c0,4.234-1.473,7.825-4.417,10.774c-2.945,2.949-6.535,4.424-10.771,4.424c-4.289,0-7.908-1.468-10.859-4.404    c-2.951-2.936-4.427-6.488-4.427-10.656c0-2.778,0.673-5.354,2.017-7.727c1.344-2.372,3.178-4.23,5.498-5.574    C316.137,7.67,318.649,6.998,321.35,6.998z M321.479,9.809c-2.141,0-4.169,0.558-6.086,1.673c-1.916,1.115-3.413,2.617-4.49,4.506    c-1.076,1.889-1.613,3.994-1.613,6.315c0,3.438,1.19,6.34,3.573,8.707c2.383,2.368,5.255,3.552,8.616,3.552    c2.244,0,4.322-0.544,6.232-1.633s3.4-2.578,4.47-4.467s1.604-3.987,1.604-6.297c0-2.295-0.535-4.371-1.604-6.228    c-1.069-1.855-2.577-3.341-4.519-4.456C325.719,10.367,323.658,9.809,321.479,9.809z" style="fill: rgb(239, 239, 239);"/>
    <path d="M341.707,7.725h2.89v17.459c0,2.07,0.039,3.361,0.118,3.873c0.145,1.14,0.479,2.094,1.003,2.86    c0.523,0.767,1.33,1.409,2.418,1.927s2.183,0.776,3.283,0.776c0.957,0,1.875-0.203,2.753-0.609s1.612-0.97,2.202-1.69    s1.022-1.593,1.297-2.615c0.197-0.733,0.295-2.241,0.295-4.521V7.725h2.891v17.459c0,2.582-0.252,4.669-0.757,6.262    s-1.514,2.979-3.028,4.158c-1.514,1.18-3.346,1.77-5.494,1.77c-2.334,0-4.332-0.558-5.997-1.671    c-1.665-1.114-2.778-2.589-3.343-4.424c-0.354-1.127-0.53-3.159-0.53-6.095V7.725z" style="fill: rgb(239, 239, 239);"/>
    <path d="M366.987,7.725h5.762c3.303,0,5.531,0.145,6.684,0.433c1.652,0.406,3.002,1.242,4.051,2.507    s1.572,2.854,1.572,4.768c0,1.927-0.511,3.516-1.533,4.768c-1.021,1.252-2.432,2.094-4.227,2.526    c-1.311,0.314-3.762,0.472-7.354,0.472h-2.064v13.448h-2.891V7.725z M369.878,10.556v9.811l4.896,0.06    c1.979,0,3.428-0.181,4.345-0.54c0.918-0.359,1.639-0.941,2.163-1.746s0.786-1.704,0.786-2.698c0-0.968-0.262-1.854-0.786-2.658    c-0.524-0.805-1.216-1.377-2.074-1.718c-0.858-0.34-2.265-0.51-4.218-0.51H369.878z" style="fill: rgb(239, 239, 239);"/>
  </g>
  <g transform="matrix(1, 0, 0, 1, 25.547804, 97.698807)">
    <path fill="#4985C4" d="M26.677,27.398l14.882-13.442l0.007,0.009    c0.056-0.06,0.118-0.115,0.174-0.173l1.038-0.938c2.146-1.743,4.619-2.693,7.421-2.836c3.92-0.211,7.304,1.261,10.151,4.413    c2.555,2.829,3.763,5.973,3.62,9.431c-0.141,3.46-1.528,6.38-4.167,8.761c-2.611,2.36-5.678,3.422-9.199,3.19    c-2.484-0.164-4.699-0.959-6.65-2.358l-5.499,4.967c3.341,2.795,7.243,4.34,11.728,4.584c5.541,0.295,10.325-1.377,14.359-5.019    c2.662-2.407,4.544-5.317,5.645-8.741c1.1-3.421,1.274-6.869,0.528-10.349c-0.747-3.478-2.35-6.578-4.813-9.305    c-3.676-4.069-8.265-6.305-13.77-6.707c-5.224-0.381-9.891,1.188-14.012,4.651L38.11,7.524l-0.236,0.215    c-0.136,0.119-0.278,0.22-0.413,0.343c-0.131,0.12-0.247,0.25-0.375,0.372L21.931,22.141L26.677,27.398z" style="stroke-opacity: 0; stroke-width: 0px;"/>
    <path fill="#DF2330" d="M48.243,18.537L33.362,31.978l-0.008-0.008    c-0.056,0.057-0.118,0.115-0.175,0.172l-1.037,0.937c-2.147,1.744-4.619,2.696-7.421,2.84c-3.919,0.207-7.303-1.262-10.15-4.414    c-2.556-2.83-3.762-5.975-3.621-9.432c0.139-3.458,1.528-6.379,4.167-8.762c2.613-2.358,5.679-3.423,9.2-3.189    c2.483,0.165,4.698,0.96,6.649,2.357l5.499-4.964c-3.34-2.799-7.241-4.342-11.729-4.583C19.199,2.635,14.413,4.306,10.379,7.95    c-2.664,2.405-4.545,5.318-5.644,8.739c-1.102,3.42-1.276,6.87-0.53,10.349c0.747,3.479,2.352,6.58,4.813,9.307    c3.676,4.068,8.265,6.303,13.769,6.707c5.224,0.379,9.891-1.188,14.012-4.652l0.012,0.011l0.236-0.213    c0.137-0.119,0.278-0.222,0.413-0.343c0.131-0.121,0.245-0.25,0.375-0.373l15.157-13.688L48.243,18.537z" style="stroke-opacity: 0; stroke-width: 0px;"/>
    <rect x="26.47" y="19.911" transform="matrix(-0.7421 0.6703 -0.6703 -0.7421 80.6417 14.9192)" fill="#131729" width="21.962" height="6.127" style="stroke-opacity: 0; stroke-width: 0px;"/>
  </g>
</svg>