<?xml version="1.0" encoding="UTF-8"?>
<svg xmlns="http://www.w3.org/2000/svg" xmlns:xlink="http://www.w3.org/1999/xlink" width="225px" height="24px" viewBox="0 0 228 24" version="1.1">
<defs>
<clipPath id="clip1">
  <rect x="0" y="0" width="229" height="24"/>
</clipPath>
<g id="surface5" clip-path="url(#clip1)">
<path style=" stroke:none;fill-rule:nonzero;fill:rgb(93.72549%,93.72549%,93.72549%);fill-opacity:1;" d="M 163.019531 5.8125 L 161.691406 7.078125 C 160.730469 6.132812 159.679688 5.414062 158.539062 4.925781 C 157.398438 4.4375 156.285156 4.195312 155.207031 4.195312 C 153.855469 4.195312 152.574219 4.527344 151.355469 5.191406 C 150.136719 5.855469 149.191406 6.753906 148.519531 7.890625 C 147.851562 9.027344 147.515625 10.226562 147.515625 11.492188 C 147.515625 12.789062 147.863281 14.023438 148.554688 15.191406 C 149.25 16.355469 150.207031 17.273438 151.429688 17.941406 C 152.652344 18.609375 153.992188 18.945312 155.449219 18.945312 C 157.21875 18.945312 158.714844 18.445312 159.9375 17.445312 C 161.160156 16.445312 161.882812 15.148438 162.109375 13.554688 L 156.628906 13.554688 L 156.628906 11.890625 L 164.039062 11.890625 C 164.023438 14.554688 163.234375 16.667969 161.671875 18.234375 C 160.109375 19.800781 158.019531 20.582031 155.402344 20.582031 C 152.226562 20.582031 149.710938 19.5 147.855469 17.328125 C 146.429688 15.65625 145.71875 13.722656 145.71875 11.527344 C 145.71875 9.894531 146.125 8.378906 146.945312 6.972656 C 147.761719 5.566406 148.882812 4.464844 150.308594 3.671875 C 151.734375 2.882812 153.347656 2.484375 155.144531 2.484375 C 156.601562 2.484375 157.972656 2.746094 159.257812 3.273438 C 160.542969 3.800781 161.796875 4.648438 163.019531 5.8125 Z M 163.019531 5.8125 "/>
</g>
</defs>
<g id="surface1">
<path style=" stroke:none;fill-rule:nonzero;fill:rgb(93.72549%,93.72549%,93.72549%);fill-opacity:1;" d="M 63.503906 5.8125 L 62.171875 7.078125 C 61.214844 6.132812 60.164062 5.414062 59.023438 4.925781 C 57.882812 4.4375 56.769531 4.195312 55.6875 4.195312 C 54.339844 4.195312 53.058594 4.527344 51.835938 5.191406 C 50.617188 5.855469 49.671875 6.753906 49.003906 7.890625 C 48.332031 9.027344 48 10.226562 48 11.492188 C 48 12.789062 48.34375 14.023438 49.039062 15.191406 C 49.730469 16.355469 50.691406 17.273438 51.914062 17.941406 C 53.136719 18.609375 54.476562 18.945312 55.933594 18.945312 C 57.699219 18.945312 59.195312 18.445312 60.417969 17.445312 C 61.640625 16.445312 62.367188 15.148438 62.59375 13.554688 L 57.113281 13.554688 L 57.113281 11.890625 L 64.519531 11.890625 C 64.503906 14.554688 63.714844 16.667969 62.152344 18.234375 C 60.59375 19.800781 58.503906 20.582031 55.886719 20.582031 C 52.707031 20.582031 50.191406 19.5 48.335938 17.328125 C 46.910156 15.65625 46.199219 13.722656 46.199219 11.527344 C 46.199219 9.894531 46.609375 8.378906 47.425781 6.972656 C 48.242188 5.566406 49.367188 4.464844 50.789062 3.671875 C 52.214844 2.882812 53.828125 2.484375 55.628906 2.484375 C 57.085938 2.484375 58.457031 2.746094 59.742188 3.273438 C 61.027344 3.800781 62.28125 4.648438 63.503906 5.8125 Z M 63.503906 5.8125 "/>
<path style=" stroke:none;fill-rule:nonzero;fill:rgb(93.72549%,93.72549%,93.72549%);fill-opacity:1;" d="M 67.804688 2.917969 L 77.652344 2.917969 L 77.652344 4.605469 L 69.523438 4.605469 L 69.523438 10.003906 L 77.582031 10.003906 L 77.582031 11.691406 L 69.523438 11.691406 L 69.523438 18.460938 L 77.582031 18.460938 L 77.582031 20.148438 L 67.804688 20.148438 Z M 67.804688 2.917969 "/>
<path style=" stroke:none;fill-rule:nonzero;fill:rgb(93.72549%,93.72549%,93.72549%);fill-opacity:1;" d="M 80.632812 20.148438 L 80.632812 2.917969 L 81.007812 2.917969 L 92.445312 16.125 L 92.445312 2.917969 L 94.140625 2.917969 L 94.140625 20.148438 L 93.753906 20.148438 L 82.410156 7.101562 L 82.410156 20.148438 Z M 80.632812 20.148438 "/>
<path style=" stroke:none;fill-rule:nonzero;fill:rgb(93.72549%,93.72549%,93.72549%);fill-opacity:1;" d="M 98.078125 2.917969 L 99.796875 2.917969 L 99.796875 20.148438 L 98.078125 20.148438 Z M 98.078125 2.917969 "/>
<path style=" stroke:none;fill-rule:nonzero;fill:rgb(93.72549%,93.72549%,93.72549%);fill-opacity:1;" d="M 101.957031 16.941406 L 103.417969 16.0625 C 104.445312 17.960938 105.632812 18.910156 106.980469 18.910156 C 107.558594 18.910156 108.101562 18.773438 108.605469 18.503906 C 109.113281 18.234375 109.5 17.875 109.761719 17.421875 C 110.027344 16.96875 110.160156 16.488281 110.160156 15.980469 C 110.160156 15.402344 109.964844 14.835938 109.574219 14.28125 C 109.039062 13.515625 108.054688 12.59375 106.628906 11.515625 C 105.195312 10.429688 104.304688 9.644531 103.957031 9.160156 C 103.347656 8.347656 103.042969 7.46875 103.042969 6.523438 C 103.042969 5.773438 103.222656 5.09375 103.582031 4.476562 C 103.9375 3.859375 104.445312 3.371094 105.09375 3.015625 C 105.742188 2.660156 106.449219 2.484375 107.214844 2.484375 C 108.023438 2.484375 108.78125 2.683594 109.488281 3.085938 C 110.191406 3.488281 110.9375 4.230469 111.726562 5.308594 L 110.324219 6.375 C 109.675781 5.515625 109.125 4.949219 108.667969 4.675781 C 108.214844 4.402344 107.71875 4.265625 107.179688 4.265625 C 106.484375 4.265625 105.917969 4.476562 105.480469 4.898438 C 105.039062 5.320312 104.820312 5.839844 104.820312 6.457031 C 104.820312 6.832031 104.898438 7.191406 105.054688 7.542969 C 105.207031 7.894531 105.492188 8.277344 105.90625 8.691406 C 106.132812 8.910156 106.871094 9.484375 108.125 10.414062 C 109.613281 11.515625 110.632812 12.496094 111.1875 13.355469 C 111.742188 14.214844 112.015625 15.078125 112.015625 15.945312 C 112.015625 17.195312 111.542969 18.28125 110.597656 19.203125 C 109.652344 20.125 108.5 20.585938 107.144531 20.585938 C 106.101562 20.585938 105.152344 20.304688 104.304688 19.746094 C 103.457031 19.1875 102.671875 18.253906 101.957031 16.941406 Z M 101.957031 16.941406 "/>
<path style=" stroke:none;fill-rule:nonzero;fill:rgb(93.72549%,93.72549%,93.72549%);fill-opacity:1;" d="M 114.296875 2.917969 L 116.273438 2.917969 L 120.671875 10.023438 L 125 2.917969 L 126.984375 2.917969 L 121.539062 11.914062 L 121.539062 20.148438 L 119.847656 20.148438 L 119.847656 11.914062 Z M 114.296875 2.917969 "/>
<path style=" stroke:none;fill-rule:nonzero;fill:rgb(93.72549%,93.72549%,93.72549%);fill-opacity:1;" d="M 128.035156 16.941406 L 129.496094 16.0625 C 130.527344 17.960938 131.714844 18.910156 133.0625 18.910156 C 133.636719 18.910156 134.179688 18.773438 134.683594 18.503906 C 135.191406 18.234375 135.578125 17.875 135.839844 17.421875 C 136.105469 16.96875 136.238281 16.488281 136.238281 15.980469 C 136.238281 15.402344 136.042969 14.835938 135.65625 14.28125 C 135.117188 13.515625 134.136719 12.59375 132.710938 11.515625 C 131.277344 10.429688 130.386719 9.644531 130.035156 9.160156 C 129.425781 8.347656 129.125 7.46875 129.125 6.523438 C 129.125 5.773438 129.300781 5.09375 129.660156 4.476562 C 130.019531 3.859375 130.523438 3.371094 131.171875 3.015625 C 131.824219 2.660156 132.53125 2.484375 133.292969 2.484375 C 134.105469 2.484375 134.863281 2.683594 135.566406 3.085938 C 136.273438 3.488281 137.015625 4.230469 137.804688 5.308594 L 136.402344 6.375 C 135.753906 5.515625 135.203125 4.949219 134.75 4.675781 C 134.292969 4.402344 133.796875 4.265625 133.257812 4.265625 C 132.566406 4.265625 132 4.476562 131.558594 4.898438 C 131.121094 5.320312 130.898438 5.839844 130.898438 6.457031 C 130.898438 6.832031 130.976562 7.191406 131.132812 7.542969 C 131.289062 7.894531 131.574219 8.277344 131.988281 8.691406 C 132.210938 8.910156 132.953125 9.484375 134.207031 10.414062 C 135.695312 11.515625 136.714844 12.496094 137.269531 13.355469 C 137.820312 14.214844 138.097656 15.078125 138.097656 15.945312 C 138.097656 17.195312 137.625 18.28125 136.675781 19.203125 C 135.730469 20.125 134.582031 20.585938 133.222656 20.585938 C 132.179688 20.585938 131.234375 20.304688 130.386719 19.746094 C 129.535156 19.1875 128.753906 18.253906 128.035156 16.941406 Z M 128.035156 16.941406 "/>
<use xlink:href="#surface5"/>
<path style=" stroke:none;fill-rule:nonzero;fill:rgb(93.72549%,93.72549%,93.72549%);fill-opacity:1;" d="M 167.402344 2.917969 L 170.828125 2.917969 C 172.734375 2.917969 174.027344 2.996094 174.707031 3.152344 C 175.726562 3.386719 176.554688 3.890625 177.195312 4.660156 C 177.832031 5.429688 178.152344 6.378906 178.152344 7.503906 C 178.152344 8.441406 177.933594 9.265625 177.492188 9.976562 C 177.054688 10.691406 176.421875 11.226562 175.605469 11.589844 C 174.789062 11.953125 173.65625 12.140625 172.21875 12.148438 L 178.398438 20.148438 L 176.273438 20.148438 L 170.09375 12.148438 L 169.121094 12.148438 L 169.121094 20.148438 L 167.402344 20.148438 Z M 169.121094 4.605469 L 169.121094 10.460938 L 172.082031 10.484375 C 173.226562 10.484375 174.074219 10.375 174.625 10.15625 C 175.175781 9.9375 175.605469 9.589844 175.914062 9.109375 C 176.222656 8.628906 176.375 8.089844 176.375 7.496094 C 176.375 6.917969 176.21875 6.394531 175.90625 5.921875 C 175.59375 5.449219 175.1875 5.113281 174.679688 4.90625 C 174.171875 4.703125 173.332031 4.601562 172.152344 4.601562 L 169.121094 4.601562 Z M 169.121094 4.605469 "/>
<path style=" stroke:none;fill-rule:nonzero;fill:rgb(93.72549%,93.72549%,93.72549%);fill-opacity:1;" d="M 189.441406 2.484375 C 192.046875 2.484375 194.226562 3.355469 195.980469 5.097656 C 197.734375 6.839844 198.609375 8.980469 198.609375 11.527344 C 198.609375 14.050781 197.734375 16.191406 195.984375 17.949219 C 194.234375 19.703125 192.101562 20.582031 189.585938 20.582031 C 187.035156 20.582031 184.882812 19.710938 183.128906 17.960938 C 181.375 16.210938 180.5 14.09375 180.5 11.609375 C 180.5 9.953125 180.898438 8.421875 181.699219 7.007812 C 182.496094 5.59375 183.585938 4.484375 184.964844 3.683594 C 186.34375 2.882812 187.839844 2.484375 189.441406 2.484375 Z M 189.519531 4.160156 C 188.246094 4.160156 187.042969 4.492188 185.902344 5.15625 C 184.765625 5.820312 183.875 6.714844 183.234375 7.839844 C 182.59375 8.964844 182.277344 10.21875 182.277344 11.605469 C 182.277344 13.652344 182.984375 15.382812 184.398438 16.792969 C 185.816406 18.203125 187.523438 18.910156 189.519531 18.910156 C 190.851562 18.910156 192.089844 18.585938 193.222656 17.933594 C 194.359375 17.285156 195.246094 16.398438 195.878906 15.273438 C 196.515625 14.148438 196.832031 12.898438 196.832031 11.519531 C 196.832031 10.152344 196.515625 8.917969 195.878906 7.808594 C 195.246094 6.707031 194.347656 5.820312 193.195312 5.15625 C 192.039062 4.492188 190.816406 4.160156 189.519531 4.160156 Z M 189.519531 4.160156 "/>
<path style=" stroke:none;fill-rule:nonzero;fill:rgb(93.72549%,93.72549%,93.72549%);fill-opacity:1;" d="M 201.542969 2.917969 L 203.257812 2.917969 L 203.257812 13.320312 C 203.257812 14.554688 203.28125 15.324219 203.328125 15.628906 C 203.414062 16.308594 203.613281 16.875 203.925781 17.332031 C 204.234375 17.789062 204.714844 18.171875 205.363281 18.480469 C 206.007812 18.789062 206.660156 18.941406 207.3125 18.941406 C 207.882812 18.941406 208.425781 18.820312 208.949219 18.578125 C 209.472656 18.339844 209.90625 18.003906 210.257812 17.574219 C 210.609375 17.144531 210.863281 16.625 211.027344 16.015625 C 211.144531 15.578125 211.203125 14.679688 211.203125 13.320312 L 211.203125 2.917969 L 212.921875 2.917969 L 212.921875 13.320312 C 212.921875 14.859375 212.773438 16.101562 212.472656 17.050781 C 212.171875 18 211.574219 18.828125 210.671875 19.527344 C 209.773438 20.230469 208.683594 20.582031 207.40625 20.582031 C 206.019531 20.582031 204.832031 20.25 203.84375 19.589844 C 202.855469 18.925781 202.191406 18.046875 201.855469 16.953125 C 201.648438 16.28125 201.542969 15.070312 201.542969 13.320312 Z M 201.542969 2.917969 "/>
<path style=" stroke:none;fill-rule:nonzero;fill:rgb(93.72549%,93.72549%,93.72549%);fill-opacity:1;" d="M 216.566406 2.917969 L 219.988281 2.917969 C 221.953125 2.917969 223.277344 3.003906 223.960938 3.175781 C 224.945312 3.417969 225.746094 3.914062 226.371094 4.667969 C 226.992188 5.421875 227.304688 6.371094 227.304688 7.511719 C 227.304688 8.660156 227 9.605469 226.390625 10.351562 C 225.785156 11.097656 224.945312 11.597656 223.878906 11.855469 C 223.101562 12.042969 221.644531 12.136719 219.511719 12.136719 L 218.28125 12.136719 L 218.28125 20.152344 L 216.566406 20.152344 Z M 218.28125 4.605469 L 218.28125 10.449219 L 221.191406 10.484375 C 222.367188 10.484375 223.230469 10.378906 223.773438 10.164062 C 224.320312 9.949219 224.75 9.601562 225.058594 9.125 C 225.371094 8.644531 225.527344 8.109375 225.527344 7.515625 C 225.527344 6.9375 225.371094 6.410156 225.058594 5.933594 C 224.75 5.453125 224.335938 5.113281 223.828125 4.910156 C 223.316406 4.707031 222.480469 4.605469 221.320312 4.605469 Z M 218.28125 4.605469 "/>
<path style=" stroke:none;fill-rule:nonzero;fill:rgb(28.627451%,52.156863%,76.862745%);fill-opacity:1;" d="M 14.320312 14.640625 L 23.164062 6.628906 L 23.167969 6.636719 C 23.203125 6.601562 23.238281 6.566406 23.273438 6.53125 L 23.890625 5.972656 C 25.164062 4.933594 26.632812 4.367188 28.300781 4.285156 C 30.628906 4.15625 32.640625 5.035156 34.332031 6.914062 C 35.851562 8.597656 36.570312 10.472656 36.484375 12.53125 C 36.398438 14.59375 35.574219 16.335938 34.007812 17.753906 C 32.457031 19.160156 30.632812 19.792969 28.539062 19.652344 C 27.0625 19.554688 25.746094 19.082031 24.589844 18.25 L 21.320312 21.207031 C 23.304688 22.875 25.625 23.792969 28.289062 23.941406 C 31.582031 24.117188 34.425781 23.121094 36.824219 20.949219 C 38.40625 19.515625 39.523438 17.78125 40.179688 15.742188 C 40.832031 13.703125 40.933594 11.648438 40.492188 9.574219 C 40.046875 7.5 39.09375 5.65625 37.632812 4.03125 C 35.445312 1.605469 32.71875 0.273438 29.449219 0.0351562 C 26.34375 -0.195312 23.570312 0.742188 21.121094 2.804688 L 21.113281 2.796875 L 20.976562 2.925781 C 20.894531 2.996094 20.808594 3.054688 20.730469 3.128906 C 20.652344 3.203125 20.582031 3.277344 20.507812 3.351562 L 11.5 11.507812 Z M 14.320312 14.640625 "/>
<path style=" stroke:none;fill-rule:nonzero;fill:rgb(87.45098%,13.72549%,18.823529%);fill-opacity:1;" d="M 27.136719 9.359375 L 18.292969 17.367188 L 18.289062 17.363281 C 18.253906 17.398438 18.21875 17.433594 18.183594 17.464844 L 17.570312 18.023438 C 16.292969 19.0625 14.824219 19.632812 13.15625 19.71875 C 10.828125 19.839844 8.816406 18.964844 7.125 17.085938 C 5.605469 15.402344 4.890625 13.527344 4.972656 11.464844 C 5.058594 9.40625 5.882812 7.664062 7.449219 6.246094 C 9.003906 4.839844 10.824219 4.207031 12.917969 4.34375 C 14.394531 4.445312 15.710938 4.917969 16.871094 5.75 L 20.136719 2.792969 C 18.152344 1.125 15.835938 0.203125 13.167969 0.0625 C 9.875 -0.117188 7.03125 0.878906 4.636719 3.050781 C 3.050781 4.484375 1.933594 6.21875 1.28125 8.257812 C 0.625 10.296875 0.523438 12.351562 0.964844 14.425781 C 1.410156 16.496094 2.363281 18.347656 3.824219 19.96875 C 6.011719 22.394531 8.738281 23.726562 12.007812 23.96875 C 15.113281 24.191406 17.886719 23.257812 20.335938 21.195312 L 20.34375 21.203125 L 20.484375 21.074219 C 20.566406 21.003906 20.648438 20.941406 20.730469 20.871094 C 20.808594 20.796875 20.875 20.722656 20.953125 20.648438 L 29.960938 12.492188 Z M 27.136719 9.359375 "/>
<path style=" stroke:none;fill-rule:nonzero;fill:rgb(7.45098%,9.019608%,16.078431%);fill-opacity:1;" d="M 26.785156 8.972656 L 17.101562 17.742188 L 14.660156 15.035156 L 24.34375 6.261719 Z M 26.785156 8.972656 "/>
</g>
</svg>
